<?xml version="1.0" encoding="UTF-8"?>
<svg id="Layer_2" data-name="Layer 2" xmlns="http://www.w3.org/2000/svg" xmlns:xlink="http://www.w3.org/1999/xlink" viewBox="0 0 2000 2000">
  <defs>
    <style>
      .cls-1 {
        fill: #ecf955;
      }

      .cls-1, .cls-2, .cls-3 {
        fill-rule: evenodd;
      }

      .cls-2 {
        fill: #dcc6e0;
      }

      .cls-4 {
        fill: url(#linear-gradient-2);
      }

      .cls-5 {
        mask: url(#mask-1);
      }

      .cls-6 {
        mask: url(#mask);
      }

      .cls-7 {
        fill: url(#linear-gradient-4);
      }

      .cls-8 {
        mask: url(#mask-2);
      }

      .cls-9 {
        fill: url(#linear-gradient-3);
      }

      .cls-10 {
        clip-path: url(#clippath-1);
      }

      .cls-11 {
        fill: url(#linear-gradient-5);
      }

      .cls-12 {
        clip-rule: evenodd;
        fill: none;
      }

      .cls-13 {
        fill: url(#linear-gradient-6);
      }

      .cls-14 {
        clip-path: url(#clippath-2);
      }

      .cls-3 {
        fill: #ffbcd8;
      }

      .cls-15 {
        fill: url(#linear-gradient);
      }

      .cls-16 {
        clip-path: url(#clippath);
      }
    </style>
    <clipPath id="clippath">
      <path class="cls-12" d="M748.13,738.93l-18.64,10.16c-58.42,33.66-107.71,79.72-144.98,134.03-49.89,72.68-78.27,160.2-78.27,252.51,0,123.18,49.93,234.7,130.63,315.4,80.7,80.7,192.22,130.63,315.39,130.63,56.22,0,110.95-10.52,161.69-30.22-90.55-1.17-172.42-38.35-231.93-97.87-60.5-60.5-97.92-144.06-97.92-236.36,0-55.73,14.03-109.79,39.71-157.72,23.34-43.58,56.28-81.96,97.04-111.83.72-.57,1.48-1.12,2.24-1.63,3.36-2.42,6.77-4.78,10.22-7.1,4.3-2.84,9.01-4.62,13.8-5.38l446.2-226.72c15.77-10.33,153.07-108.5,78.33-357.5-.45-1.19-.84-2.42-1.17-3.69l-.04-.19c-240.62,131.08-479.47,268.58-722.3,393.47"/>
    </clipPath>
    <linearGradient id="linear-gradient" x1="375.29" y1="963.56" x2="1523.68" y2="963.56" gradientUnits="userSpaceOnUse">
      <stop offset="0" stop-color="#0463ef"/>
      <stop offset="1" stop-color="#c835f8"/>
    </linearGradient>
    <clipPath id="clippath-1">
      <path class="cls-12" d="M1310.75,1091.32c10.9-6.28,21.28-12.08,31-17.38,14.51-8.52,27.86-17.02,39.4-25.39,131.87-95.5,108.13-238.18,87.64-304.3l-40.52,23.39-.08.04-.07.05-.07.04-.08.04-.06.03-.07.04-.02.02-.06.03-.07.05-.08.04-.07.04-.08.03-.08.04-.07.05-.08.04-.07.03-.08.04-.06.04h-.02l-.07.03-.08.04-.07.05-.08.04-.07.03-.08.05-.07.04-.07.03-.08.04-.07.03-.03.03-.06.02-.06.04-.09.03-.6.3-464.28,235.92c-31.74,23.51-57.39,53.46-75.53,87.35-20.17,37.66-31.2,80.42-31.2,124.78,0,34.81,6.74,68.05,18.98,98.47l268.09-139.54c20.88-10.87,44.68-22.46,69.54-34.58,32.95-16.05,67.88-33.07,99.74-50.25"/>
    </clipPath>
    <linearGradient id="linear-gradient-2" x1="835.27" y1="1029.97" x2="1484.85" y2="1029.97" gradientUnits="userSpaceOnUse">
      <stop offset="0" stop-color="#c835f8"/>
      <stop offset="1" stop-color="#fb5086"/>
    </linearGradient>
    <clipPath id="clippath-2">
      <path class="cls-12" d="M1322.38,1384.75c1.27-1.88,2.69-3.62,4.23-5.17,65.88-84.59,77.86-195.96,78.64-259.94-8.2,4.23-17.29,9.01-27.11,14.35-41.79,24.66-90.88,48.59-136.37,70.74-24.34,11.86-47.64,23.23-67.89,33.76l-265.77,138.33c7.25,9.55,15.15,18.59,23.61,27.05,47.76,47.77,113.76,77.31,186.65,77.31,40.26,0,79.24-9.06,114.28-25.86,34.01-16.32,64.61-40.04,89.33-69.96l.4-.61Z"/>
    </clipPath>
    <linearGradient id="linear-gradient-3" x1="908.1" y1="1300.41" x2="1405.25" y2="1300.41" gradientUnits="userSpaceOnUse">
      <stop offset="0" stop-color="#fcd253"/>
      <stop offset="1" stop-color="#fb5086"/>
    </linearGradient>
    <linearGradient id="linear-gradient-4" x1="2945.08" y1="-1033.41" x2="457.89" y2="1493.27" gradientTransform="translate(167.13 -148.78)" gradientUnits="userSpaceOnUse">
      <stop offset="0" stop-color="#fff"/>
      <stop offset="1" stop-color="#000"/>
    </linearGradient>
    <mask id="mask" x="506.24" y="345.45" width="987.52" height="1236.21" maskUnits="userSpaceOnUse">
      <rect class="cls-7" x="506.24" y="345.45" width="987.52" height="1236.21"/>
    </mask>
    <linearGradient id="linear-gradient-5" x1="261.84" y1="1575.97" x2="1189.11" y2="1038.2" gradientTransform="translate(218.63 -205.59)" gradientUnits="userSpaceOnUse">
      <stop offset="0" stop-color="#fff"/>
      <stop offset="1" stop-color="#000"/>
    </linearGradient>
    <mask id="mask-1" x="855.19" y="744.25" width="629.64" height="452.46" maskUnits="userSpaceOnUse">
      <rect class="cls-11" x="855.19" y="744.25" width="629.64" height="452.46"/>
    </mask>
    <linearGradient id="linear-gradient-6" x1="108.95" y1="1836.37" x2="1034.26" y2="1403.43" gradientTransform="translate(226.44 -168.6)" gradientUnits="userSpaceOnUse">
      <stop offset="0" stop-color="#fff"/>
      <stop offset="1" stop-color="#000"/>
    </linearGradient>
    <mask id="mask-2" x="908.1" y="1119.64" width="497.15" height="327.73" maskUnits="userSpaceOnUse">
      <rect class="cls-13" x="908.1" y="1119.64" width="497.15" height="327.73"/>
    </mask>
  </defs>
  <g class="cls-16">
    <rect class="cls-15" x="506.24" y="345.45" width="1040.13" height="1236.21"/>
  </g>
  <g class="cls-10">
    <rect class="cls-4" x="854.4" y="744.25" width="658.61" height="571.44"/>
  </g>
  <g class="cls-14">
    <rect class="cls-9" x="908.1" y="1119.64" width="497.15" height="361.53"/>
  </g>
  <g class="cls-6">
    <path class="cls-2" d="M979.09,773.7c170.51-81.63,359.32-179.07,513.78-260.64,3.21-45.25-1.94-99.46-21.24-163.72-.45-1.19-.84-2.42-1.21-3.89-240.62,131.08-479.47,268.58-722.3,393.47l-18.64,10.16c-58.42,33.66-107.71,79.72-144.98,134.03-49.89,72.68-78.27,160.2-78.27,252.51,0,123.18,49.93,234.7,130.63,315.4,80.7,80.7,192.22,130.63,315.39,130.63,56.22,0,110.95-10.52,161.69-30.22-439.38,71.14-742.38-486.89-134.86-777.74"/>
  </g>
  <g class="cls-5">
    <path class="cls-3" d="M855.19,1196.71l629.37-338.18c1.96-45.46-7.2-86.59-15.78-114.29l-43.36,24.91-464.28,235.92c-57.48,35.54-99.13,116.99-105.95,191.62"/>
  </g>
  <g class="cls-8">
    <path class="cls-1" d="M989.03,1447.37l401.1-204.61c11.51-46.73,14.73-90.93,15.12-123.12-8.2,4.23-17.29,9.01-27.11,14.35-41.79,24.66-90.88,48.59-136.37,70.74-24.34,11.86-47.64,23.23-67.89,33.76l-265.77,138.33c7.25,9.55,15.15,18.59,23.61,27.05,16.98,16.98,36.24,31.64,57.31,43.51"/>
  </g>
</svg>